<?xml version="1.0" standalone="no"?>
<!DOCTYPE svg PUBLIC "-//W3C//DTD SVG 20010904//EN"
 "http://www.w3.org/TR/2001/REC-SVG-20010904/DTD/svg10.dtd">
<svg version="1.0" xmlns="http://www.w3.org/2000/svg"
 width="392.000000pt" height="392.000000pt" viewBox="0 0 392.000000 392.000000"
 preserveAspectRatio="xMidYMid meet">
<metadata>
Created by potrace 1.11, written by Peter Selinger 2001-2013
</metadata>
<g transform="translate(0.000000,392.000000) scale(0.100000,-0.100000)"
fill="#000000" stroke="none">
<path d="M1270 3425 l0 -485 680 0 680 0 0 478 0 479 -452 6 c-248 4 -554 7
-680 7 l-228 0 0 -485z"/>
<path d="M298 3884 c-57 -30 -58 -37 -58 -464 0 -429 1 -434 60 -465 24 -12
83 -15 350 -15 l320 0 0 480 0 480 -322 0 c-266 -1 -328 -3 -350 -16z"/>
<path d="M2940 3420 l0 -480 328 0 c309 0 329 1 360 20 18 11 37 32 42 46 6
15 10 186 10 414 0 228 -4 399 -10 414 -5 14 -24 35 -42 46 -31 19 -51 20
-360 20 l-328 0 0 -480z"/>
<path d="M630 1445 c0 -1039 2 -1271 13 -1298 20 -47 64 -95 111 -120 l41 -22
1165 0 1165 0 40 22 c51 27 90 68 109 115 14 33 16 181 16 1303 l0 1265 -180
0 -180 0 0 -170 0 -170 -155 0 -155 0 0 170 0 170 -680 0 -680 0 0 -170 0
-170 -140 0 -140 0 0 170 0 170 -175 0 -175 0 0 -1265z"/>
</g>
</svg>
